<?xml version="1.0" standalone="no"?>
<!DOCTYPE svg PUBLIC "-//W3C//DTD SVG 20010904//EN"
 "http://www.w3.org/TR/2001/REC-SVG-20010904/DTD/svg10.dtd">
<svg version="1.0" xmlns="http://www.w3.org/2000/svg"
 width="260.000000pt" height="260.000000pt" viewBox="0 0 260.000000 260.000000"
 preserveAspectRatio="xMidYMid meet">
<metadata>
Created by potrace 1.14, written by Peter Selinger 2001-2017
</metadata>
<g transform="translate(0.000000,260.000000) scale(0.100000,-0.100000)"
fill="#000000" stroke="none">
<path d="M0 1300 l0 -1300 1300 0 1300 0 0 1300 0 1300 -1300 0 -1300 0 0
-1300z m647 1003 c13 -19 12 -24 -6 -42 -19 -19 -33 -21 -131 -21 l-110 0 0
-920 0 -920 110 0 c98 0 112 -2 131 -21 18 -18 19 -23 6 -42 -14 -21 -23 -22
-160 -25 -122 -2 -148 0 -161 13 -14 15 -16 112 -16 995 0 883 2 980 16 995
13 13 39 15 161 13 137 -3 146 -4 160 -25z m1671 15 c17 -17 17 -1979 0 -1996
-17 -17 -299 -17 -316 0 -18 18 -14 56 7 68 11 5 69 10 130 10 l111 0 0 920 0
920 -111 0 c-120 0 -149 8 -149 43 0 43 16 47 170 47 100 0 150 -4 158 -12z
m-462 -523 c126 -39 212 -154 230 -310 l7 -56 -99 3 -98 3 -8 45 c-14 79 -67
130 -146 138 -78 7 -137 -34 -167 -117 -22 -63 -22 -429 0 -492 30 -84 88
-124 172 -117 93 8 137 58 149 171 l7 67 -92 0 -91 0 0 80 0 80 185 0 185 0 0
-146 c0 -166 -13 -226 -63 -301 -70 -104 -170 -148 -316 -141 -183 9 -291 106
-337 305 -13 54 -15 110 -12 278 4 186 7 218 27 276 40 115 123 202 223 234
59 18 184 18 244 0z m-841 -20 c141 -43 218 -161 217 -334 0 -114 -49 -216
-127 -270 -26 -17 -34 -29 -30 -43 4 -10 46 -106 95 -213 l88 -196 -110 3
-110 3 -81 192 -82 193 -67 0 -68 0 0 -195 0 -195 -95 0 -95 0 0 535 0 535
208 0 c156 0 219 -4 257 -15z"/>
<path d="M740 1451 l0 -171 93 0 c114 0 151 16 185 81 19 36 23 54 19 103 -9
108 -60 146 -203 154 l-94 5 0 -172z"/>
</g>
</svg>
